<svg width="27" height="21" viewBox="0 0 27 21" fill="none" xmlns="http://www.w3.org/2000/svg">
<g clip-path="url(#clip0_2_265)">
<path d="M18.2499 17.064C15.8276 17.064 13.397 17.064 10.9747 17.056C10.7275 17.056 10.6121 17.104 10.5297 17.352C9.81293 19.592 7.48947 21.152 5.14952 20.984C2.51297 20.792 0.469633 19.024 0.0741498 16.576C-0.370769 13.848 1.40891 11.256 4.16081 10.632C6.92096 10 9.69759 11.536 10.5462 14.168C10.6204 14.4 10.7357 14.432 10.95 14.432C15.8276 14.424 20.697 14.432 25.5746 14.432C26.448 14.432 27.0412 15.008 27.0082 15.808C26.9835 16.536 26.3903 17.056 25.5746 17.064C24.3717 17.072 23.1687 17.064 21.9658 17.064C20.7217 17.064 19.4858 17.064 18.2499 17.064ZM5.38846 13.128C3.89716 13.136 2.69423 14.304 2.69423 15.744C2.69423 17.176 3.91364 18.36 5.38846 18.368C6.87976 18.368 8.11565 17.176 8.09917 15.728C8.08269 14.28 6.87976 13.128 5.38846 13.128Z" fill="#4dcad2"/>
<path d="M8.75005 3.93625C11.1889 3.93625 13.6277 3.93625 16.0583 3.94425C16.3054 3.94425 16.4043 3.87225 16.4702 3.64825C17.1953 1.39225 19.5352 -0.167749 21.8834 0.0162508C24.5117 0.224251 26.5386 1.99225 26.9341 4.41625C27.3707 7.15225 25.6158 9.72025 22.8556 10.3603C20.112 11.0002 17.3106 9.45625 16.462 6.83225C16.3961 6.60025 16.2807 6.56025 16.0665 6.56025C11.1889 6.56825 6.31948 6.56825 1.44185 6.56025C0.584964 6.56025 -0.0082613 6.00825 -2.20529e-05 5.22425C0.00821719 4.48025 0.601443 3.94425 1.43361 3.93625C2.63654 3.92825 3.83947 3.93625 5.04239 3.93625C6.27828 3.93625 7.51417 3.93625 8.75005 3.93625ZM21.6198 7.87225C23.1111 7.86425 24.314 6.68825 24.3057 5.24825C24.2975 3.79225 23.0699 2.62425 21.5703 2.63225C20.0955 2.64825 18.8761 3.84825 18.9008 5.27225C18.9255 6.72025 20.1284 7.87225 21.6198 7.87225Z" fill="#4dcad2"/>
<path d="M5.38846 13.128C6.87976 13.12 8.08269 14.28 8.09917 15.728C8.11565 17.168 6.87976 18.368 5.38846 18.368C3.9054 18.368 2.69423 17.184 2.69423 15.744C2.69423 14.304 3.89716 13.136 5.38846 13.128Z" fill="#87C8F4"/>
<path d="M21.6198 7.872C20.1285 7.88 18.9255 6.728 18.9008 5.28C18.8843 3.848 20.0955 2.648 21.5703 2.64C23.0699 2.624 24.2975 3.8 24.3058 5.256C24.3222 6.68 23.1111 7.864 21.6198 7.872Z" fill="#87C8F4"/>
</g>
<defs>
<clipPath id="clip0_2_265">
<rect width="27" height="21" fill="white"/>
</clipPath>
</defs>
</svg>
