<?xml version="1.0" encoding="UTF-8"?>
<svg version="1.1" xmlns="http://www.w3.org/2000/svg" width="512" height="512">
<path d="M0 0 C0.63534668 0.30808594 1.27069336 0.61617187 1.92529297 0.93359375 C16.54220459 8.12089434 28.93713673 17.34669387 40.61474609 28.66162109 C41.80926144 29.81571576 43.02212082 30.95076858 44.23828125 32.08203125 C70.87559974 57.43819615 86.10010069 96.55391196 87.05087161 132.94724894 C87.12231497 138.51112517 87.0786515 144.07512319 87.04663086 149.63916016 C87.0398299 151.50792748 87.03362054 153.37669703 87.0279541 155.24546814 C87.01556151 159.25044278 87.00097924 163.25540162 86.98527336 167.26036453 C86.96243943 173.5982561 86.95687347 179.93608874 86.95594788 186.27401733 C86.95576611 187.34633846 86.95558434 188.41865958 86.95539707 189.52347529 C86.95494771 193.94027348 86.95502909 198.35707155 86.9552325 202.77386975 C86.95496755 215.28989408 86.93806886 227.80541798 86.87329102 240.32128906 C86.8218343 250.28613173 86.80565224 260.25032895 86.83075243 270.2152828 C86.8426818 275.48145175 86.83683422 280.74624058 86.78806877 286.0122261 C86.74260406 290.96239417 86.74397516 295.91036372 86.78081512 300.86058235 C86.78607124 302.67258471 86.77434312 304.48473143 86.74402809 306.29648781 C86.38121909 316.20309119 86.38121909 316.20309119 90.21476936 325.03666306 C92.70316429 327.29207264 95.20203313 329.15342548 98 331 C119.3596522 352.83572172 123.31528348 381.17362489 123.3359375 410.3125 C123.34237515 412.45670661 123.34910421 414.60091236 123.35610962 416.74511719 C123.36801674 421.21307415 123.37179653 425.6809541 123.37060547 430.14892578 C123.37040102 435.87322343 123.39786196 441.59703165 123.43214989 447.32121277 C123.45436264 451.73755167 123.45844497 456.15377086 123.45738602 460.57015991 C123.45974433 462.68168853 123.46858078 464.79322034 123.48405075 466.9046936 C123.50362489 469.84827582 123.49790961 472.79077575 123.48583984 475.734375 C123.49707886 476.60299667 123.50831787 477.47161835 123.51989746 478.36656189 C123.477357 482.44495619 123.32258095 484.48928514 121.09463501 488.01660156 C117.6895845 491.24082527 115.6412162 491.12626304 111.03629589 491.13142776 C109.75699111 491.13526891 108.47768633 491.13911005 107.15961474 491.1430676 C105.72654222 491.14228726 104.29346975 491.14140845 102.86039734 491.14044189 C101.34843218 491.143024 99.83646771 491.14603672 98.3245042 491.1494453 C94.15429496 491.15753674 89.98410292 491.15930606 85.81388676 491.16004276 C81.3223004 491.1618896 76.83072303 491.16943505 72.33914185 491.17617798 C62.51072684 491.18977702 52.6823159 491.19578845 42.85389304 491.20018864 C36.72064168 491.2029484 30.58739191 491.20718525 24.45414162 491.21169281 C7.48350339 491.2238875 -9.48713356 491.23418644 -26.45777607 491.2375679 C-27.54456135 491.23778747 -28.63134662 491.23800703 -29.75106479 491.23823325 C-30.8404972 491.23845153 -31.92992962 491.23866981 -33.05237514 491.2388947 C-35.2600958 491.23933817 -37.46781645 491.23978474 -39.67553711 491.24023438 C-41.31820671 491.24056652 -41.31820671 491.24056652 -42.99406155 491.24090537 C-60.74442392 491.24485456 -78.49474526 491.26231138 -96.24509177 491.2855939 C-114.45533071 491.30928746 -132.66554904 491.32176884 -150.87580365 491.32293582 C-161.10575066 491.3238537 -171.33564423 491.32963444 -181.56557655 491.34775543 C-190.27568166 491.36312952 -198.9857168 491.36829284 -207.69583289 491.36001733 C-212.14197897 491.35610125 -216.58798405 491.35708689 -221.03411293 491.37107468 C-225.1022239 491.38375645 -229.17008712 491.38266682 -233.23819747 491.37048396 C-234.71197429 491.36851698 -236.18576831 491.3716513 -237.6595209 491.38032833 C-239.65924296 491.39135914 -241.6590462 491.38217501 -243.65877247 491.3719368 C-244.77064861 491.37253389 -245.88252475 491.37313097 -247.02809411 491.37374616 C-250.97363146 490.87755635 -253.80383323 489.507472 -256.29632568 486.36630249 C-257.39709107 482.66466977 -257.27717646 478.96607228 -257.25878906 475.13916016 C-257.2622937 474.24422852 -257.26579834 473.34929687 -257.26940918 472.42724609 C-257.27821923 469.46443953 -257.27237488 466.50187158 -257.265625 463.5390625 C-257.26697304 461.47081456 -257.26891474 459.40256693 -257.27142334 457.33432007 C-257.2743746 452.99156692 -257.27008123 448.64889595 -257.26074219 444.30615234 C-257.24941887 438.77430889 -257.25586163 433.24266104 -257.26788712 427.71082497 C-257.2751667 423.43308074 -257.27278879 419.15538166 -257.26763153 414.87763596 C-257.26630811 412.84054923 -257.26789628 410.80345824 -257.27259064 408.7663765 C-257.32035703 382.18224651 -253.30723756 355.61487254 -235 335 C-234.24203125 334.1234375 -233.4840625 333.246875 -232.703125 332.34375 C-226.48694162 325.27436498 -226.48694162 325.27436498 -223.89993572 323.81672859 C-221.67872113 322.06014086 -221.67872113 322.06014086 -221.49498463 318.80474663 C-221.47209026 317.45945039 -221.47141809 316.11367197 -221.48774719 314.76828003 C-221.48095151 314.02633774 -221.47415582 313.28439545 -221.4671542 312.51997006 C-221.44915204 310.0258728 -221.45967932 307.53270349 -221.4699707 305.03857422 C-221.46287509 303.252922 -221.45401266 301.46727606 -221.44351196 299.68164062 C-221.41983749 294.82125301 -221.42064349 289.96113321 -221.42542672 285.10070181 C-221.42601982 280.00499952 -221.40332633 274.90940469 -221.38285828 269.81375122 C-221.34738259 260.14074734 -221.33142269 250.46781856 -221.3230831 240.79475701 C-221.31018644 226.65532501 -221.27166431 212.51595896 -221.22898388 198.37658882 C-221.22584519 197.3347849 -221.22270651 196.29298097 -221.21947271 195.21960723 C-221.21318897 193.13959036 -221.20684529 191.05957366 -221.20044011 188.97955716 C-221.18250046 182.92703792 -221.17130016 176.87455502 -221.16614306 170.82201171 C-221.16227095 167.02993974 -221.15463713 163.23788062 -221.1463356 159.44581604 C-221.14341127 157.70494411 -221.14213191 155.9640684 -221.14274788 154.22319412 C-221.14692294 139.52395836 -221.09587531 124.67911848 -218.375 110.1875 C-218.20387695 109.27081543 -218.03275391 108.35413086 -217.85644531 107.40966797 C-212.27728267 79.45143727 -198.24394386 53.83709548 -179 33 C-178.21238281 32.12988281 -177.42476563 31.25976562 -176.61328125 30.36328125 C-165.03777975 18.15889002 -151.00290194 8.48651528 -136 1 C-135.36803711 0.68337402 -134.73607422 0.36674805 -134.08496094 0.04052734 C-92.25562653 -20.48822083 -41.75863475 -20.37728368 0 0 Z " fill="#010000" transform="translate(322,18)"/>
<path d="M0 0 C10.00971668 7.45073125 17.88976647 17.34172391 25.30947876 27.27902222 C30.96592326 34.77997998 37.76357676 41.30376988 44.40429688 47.91699219 C45.36735601 48.88362121 46.33024769 49.85041709 47.29296875 50.81738281 C48.20240234 51.72552734 49.11183594 52.63367188 50.04882812 53.56933594 C50.87358643 54.39296631 51.69834473 55.21659668 52.5480957 56.06518555 C55.08695576 58.44330067 56.23068855 58.91516335 59.68359375 59.53027344 C65.53603461 58.70549167 68.13971269 55.32526072 72.12304688 51.16699219 C72.91779419 50.36471191 73.7125415 49.56243164 74.53137207 48.73583984 C77.06835353 46.16634736 79.57976095 43.57335338 82.09179688 40.97949219 C83.78163523 39.26310339 85.47302603 37.54824154 87.16601562 35.83496094 C98.69221598 24.21301478 98.69221598 24.21301478 109.32199097 11.78039551 C115.08982203 4.47631314 120.85956174 -2.82216645 130.46142578 -4.44042969 C136.96696922 -5.00338427 143.39854468 -4.6562602 149.90429688 -4.27050781 C152.13392287 -4.21077844 154.36376595 -4.15865184 156.59375 -4.11425781 C178.64037787 -3.52499036 195.42103138 1.00284677 211.58789062 16.94824219 C218.38913409 24.34023954 223.32833999 32.62988956 226.90429688 41.97949219 C227.26793335 42.92115234 227.26793335 42.92115234 227.63891602 43.88183594 C232.07404134 56.13913743 231.83767424 68.31494695 231.71679688 81.16699219 C231.67554688 87.37511719 231.63429688 93.58324219 231.59179688 99.97949219 C217.07179688 99.97949219 202.55179687 99.97949219 187.59179688 99.97949219 C187.26179688 95.02949219 186.93179687 90.07949219 186.59179688 84.97949219 C183.10846354 80.69615885 183.10846354 80.69615885 179.09179688 80.47949219 C175.07513021 80.69615885 175.07513021 80.69615885 171.59179688 84.97949219 C171.26179688 105.43949219 170.93179687 125.89949219 170.59179688 146.97949219 C97.33179688 146.97949219 24.07179687 146.97949219 -51.40820312 146.97949219 C-51.73820312 126.18949219 -52.06820312 105.39949219 -52.40820312 83.97949219 C-54.94261147 80.86597503 -54.94261147 80.86597503 -57.34570312 80.65136719 C-58.02632812 80.67714844 -58.70695312 80.70292969 -59.40820312 80.72949219 C-60.42914063 80.75269531 -60.42914063 80.75269531 -61.47070312 80.77636719 C-63.62435204 80.931771 -63.62435204 80.931771 -66.40820312 81.97949219 C-67.87237212 87.83616817 -67.97809014 93.9579104 -68.40820312 99.97949219 C-82.92820313 99.97949219 -97.44820313 99.97949219 -112.40820312 99.97949219 C-112.49070312 93.87449219 -112.57320313 87.76949219 -112.65820312 81.47949219 C-112.69461914 79.58908203 -112.73103516 77.69867188 -112.76855469 75.75097656 C-113.01381026 53.66762023 -106.63577725 32.43503281 -91.39648438 15.87792969 C-71.23816493 -3.36950303 -25.13771941 -15.95255722 0 0 Z " fill="#7DD53E" transform="translate(195.408203125,344.0205078125)"/>
<path d="M0 0 C0.75869385 0.64340332 0.75869385 0.64340332 1.53271484 1.29980469 C23.66286434 20.21242532 39.25590375 45.6319761 46 74 C46.31904297 75.33611328 46.31904297 75.33611328 46.64453125 76.69921875 C49.26295188 88.69874352 49.14045265 100.83263919 49.11352539 113.04760742 C49.11324287 114.85216266 49.11340252 116.65671802 49.1139679 118.46127319 C49.11425333 123.33031144 49.10839772 128.19932475 49.10139394 133.06835723 C49.09511806 138.16791007 49.09455326 143.26746355 49.09336853 148.36701965 C49.09026766 158.01042669 49.08207111 167.65382232 49.07201904 177.29722434 C49.06081918 188.28154942 49.05533771 199.26587507 49.05032361 210.25020444 C49.0398874 232.83347594 49.02231216 255.41673733 49 278 C47.85402344 277.65066406 46.70804687 277.30132812 45.52734375 276.94140625 C43.9974751 276.48150708 42.46752269 276.02188646 40.9375 275.5625 C40.18533203 275.33240234 39.43316406 275.10230469 38.65820312 274.86523438 C32.57824225 273.04914217 26.62302228 271.9268877 20.25805664 271.79467773 C19.39769302 271.77473251 18.53732941 271.75478729 17.65089417 271.73423767 C16.74645065 271.71752518 15.84200714 271.70081268 14.91015625 271.68359375 C13.4933683 271.6524221 13.4933683 271.6524221 12.04795837 271.62062073 C9.05287427 271.55562646 6.05770807 271.496475 3.0625 271.4375 C1.02277822 271.39426703 -1.01693548 271.35065127 -3.05664062 271.30664062 C-8.03767788 271.19999695 -13.0187971 271.0985906 -18 271 C-20.09921059 264.76621651 -22.0764533 258.5328765 -23.8125 252.1875 C-24.05419922 251.35541016 -24.29589844 250.52332031 -24.54492188 249.66601562 C-24.76341797 248.86228516 -24.98191406 248.05855469 -25.20703125 247.23046875 C-25.4078833 246.51270264 -25.60873535 245.79493652 -25.81567383 245.05541992 C-26.05071738 242.4344508 -25.40507361 241.19292159 -24 239 C-22.0390625 237.5 -22.0390625 237.5 -19.625 236 C0.78240683 222.13003085 12.44631324 200.28389748 17.20812225 176.40604687 C19.20333637 165.68024782 19.47368482 155.17963057 19.46875 144.29296875 C19.47587469 142.35060921 19.48357692 140.40825172 19.49182129 138.46589661 C19.50515229 134.42780674 19.50688415 130.38991213 19.50097656 126.35180664 C19.49505641 121.20658108 19.52582116 116.06229123 19.56609344 110.91724682 C19.59206073 106.91837108 19.59484034 102.91971906 19.59120178 98.92077065 C19.59288101 97.02435241 19.60240647 95.12792249 19.62034607 93.23158836 C19.72347538 80.99795887 19.42499198 69.91367059 10.9375 60.1875 C-3.86497387 47.13209923 -25.02701185 42.31068718 -44.34375 42.6953125 C-65.72999466 44.47749955 -83.44299871 55.87667017 -100.36328125 68.1640625 C-115.12571114 78.8465701 -115.12571114 78.8465701 -123 81 C-124.20011719 81.32871094 -125.40023437 81.65742188 -126.63671875 81.99609375 C-131.45966631 83.18514467 -136.32927389 83.80034796 -141.25 84.4375 C-162.23854389 87.23954282 -162.23854389 87.23954282 -179.40625 98.859375 C-194.46898907 119.09070101 -194.61896541 150.18868749 -191.58105469 174.32910156 C-189.83088317 184.37878771 -186.8735232 194.01398425 -182 203 C-181.56042969 203.89460937 -181.12085938 204.78921875 -180.66796875 205.7109375 C-173.13539307 220.52707808 -161.51742871 231.65707134 -148 241 C-148.60204909 243.75047808 -149.20661137 246.50036725 -149.8125 249.25 C-150.0609668 250.38695312 -150.0609668 250.38695312 -150.31445312 251.546875 C-151.75337253 258.06273644 -153.35822574 264.53253021 -155 271 C-156.22404541 271.01458252 -157.44809082 271.02916504 -158.70922852 271.04418945 C-163.32229457 271.10288452 -167.9349081 271.18010169 -172.54760742 271.26245117 C-174.53060471 271.29536999 -176.51368828 271.32350051 -178.49682617 271.34643555 C-191.38427466 271.49943127 -203.85748802 271.81522743 -216.15454102 276.09887695 C-219 277 -219 277 -223 277 C-223.04680948 253.51194692 -223.0820326 230.02390087 -223.10362434 206.53581047 C-223.11391814 195.62883821 -223.12794207 184.72189501 -223.15087891 173.81494141 C-223.170871 164.30370632 -223.18373021 154.79249228 -223.18817699 145.28123677 C-223.19077454 140.24942423 -223.19684007 135.21767191 -223.21146011 130.18587875 C-223.22513615 125.44008705 -223.22920258 120.69437979 -223.22621536 115.94857025 C-223.22676108 114.21610936 -223.23067837 112.48364535 -223.23841095 110.75120163 C-223.28136552 100.62204659 -222.77936135 91.0011603 -221 81 C-220.86569643 80.22757902 -220.73139286 79.45515804 -220.59301949 78.65933037 C-216.24502181 55.42025401 -205.70174329 33.64709201 -190 16 C-189.28199219 15.15050781 -188.56398437 14.30101562 -187.82421875 13.42578125 C-169.7380326 -7.55162471 -143.94162077 -21.8444708 -117.1875 -28.3125 C-116.53088379 -28.47202148 -115.87426758 -28.63154297 -115.19775391 -28.79589844 C-75.31383209 -37.76458376 -30.92063496 -26.5034014 0 0 Z " fill="#653232" transform="translate(342,52)"/>
<path d="M0 0 C3.16530277 2.87754798 4.02755557 4.3756193 4.32992554 8.69670105 C4.34795067 10.32791135 4.35478119 11.95926723 4.35302734 13.59057617 C4.35974457 14.4821492 4.36646179 15.37372223 4.37338257 16.29231262 C4.39243124 19.250921 4.39629204 22.20930278 4.3984375 25.16796875 C4.40486715 27.23285515 4.41159564 29.29774063 4.41860962 31.36262512 C4.43060411 35.70295314 4.43428886 40.0432015 4.43310547 44.38354492 C4.43290364 49.90527855 4.46005411 55.42648956 4.49464989 60.94810009 C4.51707318 65.22164679 4.52093811 69.49507157 4.51988602 73.76867104 C4.52222467 75.80133149 4.53094862 77.83399621 4.54655075 79.86659813 C4.72048151 104.89673384 -1.1513223 126.56778611 -18.6875 145.1875 C-33.132572 158.96070819 -50.49938345 164.19250207 -70.015625 164.17578125 C-71.14466248 164.18006638 -72.27369995 164.1843515 -73.43695068 164.18876648 C-75.81359185 164.19447946 -78.19025049 164.19503257 -80.56689453 164.19067383 C-84.16339642 164.18752113 -87.75906865 164.2109875 -91.35546875 164.23632812 C-115.43397317 164.30254529 -134.41796963 160.4523875 -152.52734375 143.43359375 C-168.77723559 126.1828982 -174.522108 104.59490804 -174.3125 81.375 C-174.32410156 80.08980469 -174.33570313 78.80460937 -174.34765625 77.48046875 C-174.30764866 64.21128501 -172.8484047 49.98793755 -164.9375 38.875 C-158.93480807 33.35639613 -152.01604478 30.98586203 -144.0078125 29.98046875 C-142.89019531 29.8323877 -141.77257812 29.68430664 -140.62109375 29.53173828 C-139.44675781 29.37688965 -138.27242187 29.22204102 -137.0625 29.0625 C-118.2915246 26.4156322 -103.31454941 21.8346797 -88.26049805 9.90844727 C-61.73347188 -10.80771324 -29.63381532 -21.43722811 0 0 Z " fill="#FDBF6C" transform="translate(339.9375,123.125)"/>
<path d="M0 0 C9.66669977 7.89726532 16.89735006 19.99276813 18.71484375 32.40625 C19.80842814 47.99763886 17.94122498 61.31374822 7.87109375 73.9765625 C-0.9186174 83.88091093 -12.01582967 91.39207156 -25.54223633 92.609375 C-27.91913232 92.70904566 -30.28126906 92.73528503 -32.66015625 92.71875 C-33.91687134 92.71137817 -33.91687134 92.71137817 -35.19897461 92.70385742 C-41.3305867 92.5876494 -46.63113073 91.90454034 -52.28515625 89.40625 C-53.09855469 89.07753906 -53.91195313 88.74882813 -54.75 88.41015625 C-66.84256494 83.02533149 -75.36116988 73.49841354 -80.56640625 61.4375 C-86.13071088 46.65234769 -85.67136028 31.74558559 -79.16015625 17.28125 C-71.85403053 3.65335682 -59.84949787 -5.17145305 -45.28515625 -9.59375 C-29.14627676 -12.90106901 -13.47976839 -9.40127436 0 0 Z " fill="#010000" transform="translate(486.28515625,13.59375)"/>
<path d="M0 0 C8.03058739 7.26315924 13.53976543 16.80977791 14.23828125 27.72265625 C14.59739266 41.73770703 11.67846743 52.55826543 2.03515625 63.16015625 C-7.0482661 71.94791567 -18.24056356 75.42625229 -30.6796875 75.2734375 C-42.74084656 74.28016558 -52.54933987 68.92187558 -60.8125 60.25 C-69.61057958 49.60078784 -71.14337094 37.30609616 -70 24 C-67.67299994 12.95007398 -61.14130834 3.52253496 -52 -3 C-35.19907525 -13.38352234 -15.52109852 -12.27360714 0 0 Z " fill="#010000" transform="translate(77,167)"/>
<path d="M0 0 C0.90234375 0.21221191 1.8046875 0.42442383 2.734375 0.64306641 C15.53887394 3.39639872 28.22067682 3.45822319 41.27441406 3.39111328 C44.99321166 3.37502936 48.71092272 3.3910379 52.4296875 3.41015625 C65.25996137 3.41978473 77.48320189 2.9436827 90 0 C92.30480616 6.03059662 94.21167193 11.99517031 95.8125 18.25 C96.05419922 19.13429688 96.29589844 20.01859375 96.54492188 20.9296875 C96.76341797 21.78304688 96.98191406 22.63640625 97.20703125 23.515625 C97.4078833 24.28165039 97.60873535 25.04767578 97.81567383 25.83691406 C98.05575491 28.65428939 97.57865829 29.64783802 96 32 C94.23092945 33.92403217 92.45143977 35.75761538 90.58203125 37.578125 C90.04656174 38.10839294 89.51109222 38.63866089 88.95939636 39.18499756 C87.24846248 40.87817056 85.53101232 42.56452208 83.8125 44.25 C81.5655836 46.4600922 79.32190321 48.6733935 77.08203125 50.890625 C76.53943161 51.42768066 75.99683197 51.96473633 75.43778992 52.51806641 C72.03223506 55.91093733 68.81724307 59.40681372 65.70141602 63.06933594 C62.18201112 67.0629439 58.34462575 70.75749362 54.5625 74.5 C53.73556641 75.32242188 52.90863281 76.14484375 52.05664062 76.9921875 C50.04005041 78.99712113 48.02114764 80.99966253 46 83 C36.99547956 75.49908512 28.72393823 67.19893203 20.38030243 58.98055553 C17.66514678 56.30655263 14.94099387 53.64333915 12.19335938 51.00268555 C9.51762451 48.4307134 6.86729428 45.83493999 4.23292542 43.22063637 C3.23036161 42.23396858 2.21920065 41.25595468 1.19932556 40.28719139 C-6.70745699 32.75870218 -6.70745699 32.75870218 -7.41345215 28.51441956 C-7.18409581 26.19784564 -6.72016783 24.20894443 -6 22 C-5.81630859 21.06744385 -5.63261719 20.1348877 -5.44335938 19.17407227 C-5.24548828 18.39604248 -5.04761719 17.6180127 -4.84375 16.81640625 C-4.62589844 15.95208984 -4.40804687 15.08777344 -4.18359375 14.19726562 C-3.95800781 13.32779297 -3.73242188 12.45832031 -3.5 11.5625 C-3.27441406 10.66595703 -3.04882812 9.76941406 -2.81640625 8.84570312 C-1.14826949 2.29653898 -1.14826949 2.29653898 0 0 Z " fill="#FDBE6C" transform="translate(210,300)"/>
<path d="M0 0 C7.7452522 5.3171325 13.31193426 11.91727788 16 21 C17.4272118 30.07789046 16.55315908 38.91551293 12 47 C11.66097656 47.63164063 11.32195312 48.26328125 10.97265625 48.9140625 C6.60409876 55.97215894 -1.06656285 60.93167428 -9 63 C-21.09296746 64.26526018 -30.17446559 62.94509176 -40.11328125 55.39453125 C-46.0529034 50.03996824 -50.64496687 41.80167759 -51.23828125 33.77734375 C-51.4694249 21.81870142 -49.56515073 13.83132029 -41.1484375 4.9765625 C-29.81737445 -5.4480155 -13.61659098 -7.55567229 0 0 Z " fill="#FDA620" transform="translate(471,25)"/>
<path d="M0 0 C6.88635802 6.75587965 9.6056841 15.0361614 9.953125 24.47265625 C9.62226884 33.69692599 5.76183935 42.07792387 -0.51953125 48.8203125 C-8.52241531 56.09566165 -17.48109843 57.46399931 -27.953125 57.2265625 C-36.34692588 56.69229011 -44.14635739 52.07973811 -49.67578125 45.83203125 C-56.57776427 36.37851728 -57.33761178 27.13785215 -56.14453125 15.8203125 C-55.29273542 12.39885325 -54.06558795 9.76193058 -52.14453125 6.8203125 C-51.73203125 6.12679687 -51.31953125 5.43328125 -50.89453125 4.71875 C-46.2286511 -2.35960227 -39.41798636 -6.64603611 -31.20703125 -8.6171875 C-19.46780176 -10.40199198 -9.23871157 -7.33933574 0 0 Z " fill="#000000" transform="translate(481.14453125,243.1796875)"/>
<path d="M0 0 C6.10294433 3.99038668 9.83404878 9.44349125 11.63671875 16.48828125 C12.7916685 24.47357899 10.78359099 30.7369699 6.25 37.3125 C2.46157402 42.04332051 -2.00676053 44.80577516 -8 46 C-15.24583836 46.68632941 -20.95254169 46.23874361 -27 42 C-32.30974576 37.41431048 -36.57547133 32.13243727 -37.30859375 24.99609375 C-37.61975047 16.40628236 -36.70561744 10.60848437 -31 4 C-22.17180154 -4.35420123 -10.74419408 -5.01666529 0 0 Z " fill="#FCA520" transform="translate(62,178)"/>
<path d="M0 0 C14.52 0 29.04 0 44 0 C44 9.9 44 19.8 44 30 C29.48 30 14.96 30 0 30 C0 20.1 0 10.2 0 0 Z " fill="#FDBE6C" transform="translate(383,461)"/>
<path d="M0 0 C14.52 0 29.04 0 44 0 C44 9.9 44 19.8 44 30 C29.48 30 14.96 30 0 30 C0 20.1 0 10.2 0 0 Z " fill="#FDBF6C" transform="translate(83,461)"/>
<path d="M0 0 C1.6640625 1.2578125 1.6640625 1.2578125 3 3 C3.29296875 5.48046875 3.29296875 5.48046875 3.1875 8.1875 C3.14689453 9.53908203 3.14689453 9.53908203 3.10546875 10.91796875 C3.07066406 11.60503906 3.03585938 12.29210937 3 13 C4.051875 12.95875 5.10375 12.9175 6.1875 12.875 C10.46423406 13.01522079 13.26422364 13.60465436 16.61328125 16.296875 C18.82347999 19.01137261 18.46767147 21.46089704 18.36328125 24.83984375 C18 27 18 27 16.125 29.5 C12.9407305 31.74771965 11.2306169 32.11758024 7.375 32.0625 C6.14910156 32.04896484 6.14910156 32.04896484 4.8984375 32.03515625 C4.27195313 32.02355469 3.64546875 32.01195312 3 32 C3.04640625 32.67546875 3.0928125 33.3509375 3.140625 34.046875 C3.43365134 41.2888118 3.43365134 41.2888118 1.4375 44.5625 C-1.82005411 46.48362165 -4.22135902 46.93370805 -8 47 C-10.84302741 45.79961065 -12.42521835 44.73900498 -14.3125 42.3125 C-15.34720816 38.832118 -15.12078138 35.62344134 -15 32 C-15.59167969 32.04640625 -16.18335938 32.0928125 -16.79296875 32.140625 C-21.01985618 32.33369653 -23.3248392 32.4219755 -27 30.125 C-29.58105526 27.38262878 -29.95402095 26.48737793 -30.3125 22.6875 C-29.94887565 18.39673265 -29.0975514 16.92546521 -26 14 C-22.54853184 12.45279013 -18.72571649 12.92835161 -15 13 C-15.061875 11.783125 -15.12375 10.56625 -15.1875 9.3125 C-15.16667412 5.39029308 -14.67434362 3.03092277 -12 0 C-7.39090657 -2.35575886 -4.65087742 -2.17040946 0 0 Z " fill="#000000" transform="translate(51,277)"/>
<path d="M0 0 C2.69990662 1.79993774 4.5418865 3.083773 6 6 C6.06950541 7.54023996 6.08452357 9.08334988 6.0625 10.625 C6.05347656 11.44226563 6.04445312 12.25953125 6.03515625 13.1015625 C6.02355469 13.72804688 6.01195312 14.35453125 6 15 C6.59167969 14.95359375 7.18335938 14.9071875 7.79296875 14.859375 C12.01985618 14.66630347 14.3248392 14.5780245 18 16.875 C20.56718101 19.60262983 20.94813481 20.5418575 21.375 24.3125 C21 28 21 28 19.125 30.9375 C14.75340728 33.82275119 11.09210661 33.44494135 6 33 C6.05220703 33.88751953 6.05220703 33.88751953 6.10546875 34.79296875 C6.27423044 39.71920277 6.24691546 43.00379636 3 47 C-0.45321627 48.72660813 -4.22398729 48.49047852 -8 48 C-10.52840411 46.23011713 -11.58210675 45.00990868 -12.75 42.1875 C-13.10090788 39.11705607 -13.05935782 36.08660641 -13 33 C-13.67546875 33.04640625 -14.3509375 33.0928125 -15.046875 33.140625 C-22.21366721 33.43061081 -22.21366721 33.43061081 -25.625 31.5625 C-27.67574437 27.74065821 -27.7950864 24.24046082 -27 20 C-25.12379387 17.49839182 -23.76108697 16.38054348 -21 15 C-18.3276379 14.86584528 -15.67749512 14.95681459 -13 15 C-12.97421875 14.32453125 -12.9484375 13.6490625 -12.921875 12.953125 C-12.45439739 5.6009772 -12.45439739 5.6009772 -10.0625 2.4375 C-6.52152309 -0.03045361 -4.33876291 -0.42536891 0 0 Z " fill="#000000" transform="translate(78,60)"/>
<path d="M0 0 C2.1953125 0.46875 2.1953125 0.46875 5.2578125 2.34375 C7.97474097 6.72589269 7.63435383 10.44416592 7.1953125 15.46875 C7.85917969 15.41074219 8.52304687 15.35273438 9.20703125 15.29296875 C13.80986449 15.05778749 16.38631479 14.93481151 20.3203125 17.53125 C22.68554045 21.23677378 22.89030229 23.14436906 22.1953125 27.46875 C20.39968845 30.22204021 19.14276328 31.99502461 16.1953125 33.46875 C14.65507254 33.53825541 13.11196262 33.55327357 11.5703125 33.53125 C10.34441406 33.51771484 10.34441406 33.51771484 9.09375 33.50390625 C8.46726562 33.49230469 7.84078125 33.48070312 7.1953125 33.46875 C7.24171875 34.06042969 7.288125 34.65210938 7.3359375 35.26171875 C7.52900903 39.48860618 7.617288 41.7935892 5.3203125 45.46875 C2.74273228 47.89470786 1.86013082 48.42539228 -1.6796875 48.65625 C-4.75097179 48.47197294 -6.29087064 48.1745543 -8.8046875 46.46875 C-11.0138275 43.15504 -11.02950303 42.1241479 -10.9296875 38.28125 C-10.91164063 37.38019531 -10.89359375 36.47914063 -10.875 35.55078125 C-10.85179687 34.86371094 -10.82859375 34.17664063 -10.8046875 33.46875 C-11.38476562 33.52675781 -11.96484375 33.58476562 -12.5625 33.64453125 C-16.69856372 33.88341282 -19.90990662 33.94771159 -23.3671875 31.46875 C-26.09066307 28.11678007 -26.62737312 26.59891343 -26.23828125 22.40625 C-25.46368909 18.94500938 -24.68002498 17.60853603 -21.8046875 15.46875 C-18.10103053 15.05841678 -14.51441028 15.18092668 -10.8046875 15.46875 C-10.85109375 14.80488281 -10.8975 14.14101562 -10.9453125 13.45703125 C-11.11767619 9.24027679 -11.15153696 6.22277057 -9.3671875 2.34375 C-6.11913952 -0.03287047 -3.96361126 -0.26162451 0 0 Z " fill="#000000" transform="translate(454.8046875,137.53125)"/>
<path d="M0 0 C2.16233018 1.33678939 4.0482007 2.85209009 6.01171875 4.46484375 C12.21201553 9.25210629 19.38271757 9.95348459 27 9 C32.04668387 7.64937669 36.30964046 5.85967978 40.125 2.25 C42.93416729 0.05152125 43.70132111 -0.43087368 47.0625 -0.6875 C51.68224695 0.11912248 51.68224695 0.11912248 54.0625 2.625 C56 6 56 6 56.0625 9.0625 C53.38831208 16.45584308 47.68758129 19.51562957 41 23 C30.42435779 27.67421729 18.09735965 29.17245118 7 25.3125 C-0.03801057 22.3113063 -5.82931329 18.64074914 -11 13 C-11.33 12.67 -11.66 12.34 -12 12 C-12.57692308 4.96153846 -12.57692308 4.96153846 -10.5 1.5 C-6.96399607 -0.62160236 -3.93978688 -0.97056794 0 0 Z " fill="#030201" transform="translate(234,234)"/>
<path d="M0 0 C1.43653931 -0.00361794 1.43653931 -0.00361794 2.90209961 -0.00730896 C4.92273101 -0.00633141 6.94338949 0.00704024 8.96386719 0.03198242 C12.05236009 0.0662936 15.13799116 0.05263584 18.2265625 0.03320312 C20.19272048 0.04010182 22.1588711 0.04977441 24.125 0.0625 C25.04595459 0.05754013 25.96690918 0.05258026 26.91577148 0.04747009 C31.14753584 0.12499886 33.46237187 0.25406569 37.12109375 2.53930664 C39.43212254 5.02674319 39.98836891 6.07292309 40.4375 9.44140625 C40.0625 12.62890625 40.0625 12.62890625 38.18969727 15.28881836 C33.72591721 18.62907379 30.09159737 18.3323236 24.65234375 18.2578125 C23.64788712 18.26022446 22.64343048 18.26263641 21.60853577 18.26512146 C19.48955326 18.26414377 17.37054496 18.25076892 15.25170898 18.22583008 C12.00741969 18.1914848 8.76584901 18.20518499 5.52148438 18.22460938 C3.4609259 18.21771185 1.40037446 18.20804031 -0.66015625 18.1953125 C-1.63001968 18.20027237 -2.59988312 18.20523224 -3.59913635 18.21034241 C-10.26022637 18.09371928 -10.26022637 18.09371928 -13.54467773 15.83959961 C-15.22231294 13.17684996 -15.46093627 10.84723303 -15.56640625 7.7265625 C-13.21690761 -0.10996402 -6.86157739 -0.09878036 0 0 Z " fill="#000100" transform="translate(176.9375,403.37109375)"/>
<path d="M0 0 C4.12423001 2.68971523 7.04506416 5.26938749 8.546875 9.984375 C9.41815976 15.03782662 8.75541308 18.72375046 6.1640625 23.1484375 C3.08258331 27.27575205 -0.55924372 29.00207282 -5.5 29.9375 C-9.95710438 30.23814785 -12.80195713 29.12490412 -16.390625 26.51953125 C-19.98346329 23.11280846 -21.86255094 19.55013865 -22.34765625 14.60546875 C-22.12232253 9.3146329 -20.40246543 6.01793958 -16.73046875 2.25 C-11.77963711 -1.99012831 -6.00431272 -2.16155258 0 0 Z " fill="#FAA320" transform="translate(464.125,253.125)"/>
<path d="M0 0 C0.845625 0.53625 1.69125 1.0725 2.5625 1.625 C4.96984202 3.26529146 4.96984202 3.26529146 8 2.875 C11.03058705 2.15981279 11.03058705 2.15981279 13.375 0.375 C17.35602977 -1.71030131 19.65031719 -1.05234261 24 0 C26.85919086 2.32309258 26.97108775 3.77283231 27.4375 7.4375 C26.91505401 11.6917031 26.0895756 13.06886417 23 16 C15.96498037 20.84779775 9.40771722 21.83844271 1 21 C-4.46589754 19.30686002 -8.20017829 16.26040615 -12 12 C-12.33 11.67 -12.66 11.34 -13 11 C-13.58988764 4.74719101 -13.58988764 4.74719101 -11.125 1.625 C-7.09795217 -1.45450717 -4.95658492 -1.00811897 0 0 Z " fill="#030201" transform="translate(210,172)"/>
<path d="M0 0 C1.485 1.0209375 1.485 1.0209375 3 2.0625 C5.8337731 4.2891163 5.8337731 4.2891163 9.0625 3.9375 C12.03229534 3.12298189 12.03229534 3.12298189 14.5 1.4375 C17.67615363 -0.38878834 19.38907827 -0.60182029 23 0 C26.60142761 2.58363285 27.82760832 4.05184575 28.625 8.4375 C27.85829452 12.80772123 26.44624753 15.31270136 23 18 C16.65690789 21.62622788 10.24690636 23.12113224 3 22 C-2.83090954 20.40803924 -7.31894007 17.68088141 -11.02734375 12.8671875 C-12 11 -12 11 -12.1875 7.3125 C-10.02573612 1.28231655 -6.34652986 -1.03616814 0 0 Z " fill="#030201" transform="translate(285,171)"/>
</svg>
